<svg id="Layer_1" data-name="Layer 1" xmlns="http://www.w3.org/2000/svg" viewBox="0 0 285.38 398.64"><defs><style>.cls-1{fill:#ff6767;}</style></defs><title>maki-icon-01</title><path class="cls-1" d="M137.08,34.55l-55.15-23S62,1.87,63.55,26.38c0,0-1,18.39,9.7,44.94,0,0,2,12.77-1.53,17.36,0,0-26.13,61.79,28.55,100.6L68.14,254.64s-18.38,33.7-14.81,57.7c0,0-18.38-45.45,5.62-87.32a42.63,42.63,0,0,0,7.4-23.1,14.08,14.08,0,0,0-9.43-13.49c-5.47-1.85-13.51-2-24.06,4.5a19.76,19.76,0,0,0-3.92,3.19c-9.14,9.58-46.51,55.41-19,139.71,0,0,21.45,61.28,70,62.81H208.57s64.34.51,68.93-77.11c0,0,8.69-29.62-28.59-92.42L231,190.3s49-30.64,28.08-98.56c0,0-7.66-11.23-2-21.95,0,0,10.72-30.64,9.7-50.05,0,0-.51-15.31-23-6.63l-52.12,20a15,15,0,0,1-5.22,1Z"/></svg>